<svg xmlns="http://www.w3.org/2000/svg" xmlns:xlink="http://www.w3.org/1999/xlink" width="1080" zoomAndPan="magnify" viewBox="0 0 810 809.999993" height="1080" preserveAspectRatio="xMidYMid meet" version="1.2"><g id="df9f8e8f3c"><path style=" stroke:none;fill-rule:nonzero;fill:#efeae7;fill-opacity:1;" d="M 250.089844 401.3125 C 252.894531 401.15625 253.828125 400.402344 253.84375 397.882812 C 255.144531 394.832031 257.035156 392.019531 257.460938 388.632812 C 260.414062 387.242188 263.332031 385.964844 265.058594 382.777344 C 265.453125 382.039062 266.140625 381.644531 266.851562 381.351562 C 266.082031 381.539062 265.273438 381.71875 264.414062 381.761719 C 261.917969 381.898438 260.847656 379.691406 259.40625 378.300781 C 258.148438 377.097656 256.660156 376.601562 255.1875 376.46875 C 253.320312 376.304688 252.234375 375.40625 251.832031 373.828125 C 251.375 372.132812 252.210938 370.890625 253.746094 369.941406 C 255.601562 368.820312 257.804688 367.480469 257.117188 364.953125 C 256.796875 363.765625 255.292969 362.890625 256.214844 361.3125 C 255.757812 363.503906 254.300781 363.929688 252.308594 363.714844 C 250.90625 363.554688 250.15625 362.539062 249.132812 361.84375 C 245.6875 359.511719 240.675781 360.257812 238.066406 363.445312 C 232.675781 370 228.109375 371.46875 220.144531 368.960938 C 217.542969 368.148438 214.925781 367.839844 212.25 367.9375 C 212.382812 368.183594 212.542969 368.417969 212.554688 368.753906 C 212.632812 369.148438 212.570312 369.402344 212.585938 369.746094 C 216.59375 371.292969 215.332031 376.050781 217.167969 379.363281 C 220.445312 376.230469 223.546875 376.574219 226.710938 379.722656 C 227.855469 380.851562 229.8125 381.15625 231.390625 381.851562 C 232.804688 382.480469 234.648438 382.90625 234.589844 384.835938 C 234.53125 386.433594 232.894531 387.0625 231.621094 387.550781 C 229.835938 388.230469 228.429688 387.21875 227.800781 385.664062 C 226.820312 383.25 225.566406 381.875 222.859375 383.199219 C 222.328125 383.460938 221.5 383.863281 221.453125 384.273438 C 221.296875 385.6875 222.335938 387.714844 219.742188 387.757812 C 217.296875 387.804688 214.550781 388.738281 212.488281 386.757812 C 210.113281 384.460938 206.835938 384.429688 203.507812 382.21875 C 204.152344 383.820312 204.460938 384.507812 204.707031 385.203125 C 205.320312 386.882812 209.125 388.027344 205.84375 390.34375 C 203.171875 392.246094 199.195312 391.003906 197.699219 388.140625 C 197.558594 387.863281 197.429688 387.570312 197.355469 387.273438 C 196.742188 384.582031 197.035156 380.589844 193.773438 380.3125 C 192.570312 380.207031 191.578125 380.671875 190.664062 381.3125 C 190.515625 382.039062 190.484375 382.875 190.542969 383.847656 C 190.621094 384.796875 189.722656 385.5 189.394531 386.375 C 188.59375 388.542969 189.117188 390.007812 191.496094 390.667969 C 193.460938 391.207031 195.367188 391.953125 197.257812 392.65625 C 200.519531 393.859375 200.90625 396.289062 198.28125 398.660156 C 197.148438 399.691406 195.785156 400.492188 195 401.988281 C 200.960938 402.007812 200.996094 402.007812 201.339844 408.3125 C 201.476562 410.929688 203.023438 412.246094 205.230469 413.058594 C 207.359375 413.835938 209.378906 414.808594 211.332031 415.914062 C 211.144531 411.371094 212.894531 410.710938 218.828125 411.207031 C 225.117188 411.730469 231.757812 412.96875 237.003906 407.542969 C 237.949219 406.5625 239.316406 405.65625 240.820312 406.25 C 242.648438 406.972656 241.429688 408.746094 241.878906 409.949219 C 241.917969 410.054688 241.902344 410.121094 241.933594 410.21875 C 241.984375 405.367188 244.921875 401.589844 250.089844 401.3125 Z M 250.089844 401.3125 "/><path style=" stroke:none;fill-rule:nonzero;fill:#efeae7;fill-opacity:1;" d="M 240.617188 422.195312 C 240.640625 422.996094 240.675781 423.8125 240.683594 424.617188 C 240.691406 425.285156 240.765625 425.835938 240.878906 426.332031 C 240.886719 425.785156 240.90625 425.230469 240.921875 424.695312 C 240.984375 423.527344 240.847656 422.734375 240.617188 422.195312 Z M 240.617188 422.195312 "/><path style=" stroke:none;fill-rule:nonzero;fill:#efeae7;fill-opacity:1;" d="M 242.171875 415.65625 C 242.867188 414.785156 242.644531 414.144531 242.359375 413.53125 C 242.164062 415.839844 240.824219 417.679688 238.320312 419.136719 C 237.417969 419.660156 236.871094 420.761719 236.496094 422.03125 C 238.476562 421.238281 239.988281 420.804688 240.617188 422.195312 C 240.535156 419.878906 240.601562 417.613281 242.171875 415.65625 Z M 242.171875 415.65625 "/><path style=" stroke:none;fill-rule:nonzero;fill:#efeae7;fill-opacity:1;" d="M 292.757812 436.378906 C 292.820312 436.410156 292.863281 436.453125 292.910156 436.484375 C 293.09375 436.589844 293.183594 436.605469 293.214844 436.46875 C 293.230469 436.445312 293.230469 436.453125 293.246094 436.433594 C 293.164062 436.433594 293.089844 436.425781 292.929688 436.335938 C 292.878906 436.351562 292.820312 436.351562 292.757812 436.378906 Z M 292.757812 436.378906 "/><path style=" stroke:none;fill-rule:nonzero;fill:#efeae7;fill-opacity:1;" d="M 417.253906 231.914062 C 416.476562 232.339844 415.152344 233.214844 414.070312 232.527344 C 414.054688 232.542969 414.023438 232.554688 414.007812 232.578125 C 413.71875 232.722656 413.410156 232.757812 413.121094 232.804688 C 412.933594 235.390625 412.960938 237.8125 416.582031 238.800781 C 417.652344 239.082031 419.355469 240.371094 419.75 239.800781 C 421.652344 237.058594 425.253906 238.253906 427.289062 236.167969 C 427.984375 235.449219 427.75 234.558594 426.875 234.277344 C 423.75 233.238281 421.285156 229.835938 417.253906 231.914062 Z M 417.253906 231.914062 "/><path style=" stroke:none;fill-rule:nonzero;fill:#efeae7;fill-opacity:1;" d="M 247.867188 429.226562 C 248.347656 429.007812 248.839844 428.597656 249.328125 427.863281 C 249.738281 427.265625 250.230469 426.816406 250.753906 426.519531 C 250.566406 426.5625 250.386719 426.546875 250.210938 426.621094 C 249.394531 426.9375 248.558594 427.953125 247.867188 429.226562 Z M 247.867188 429.226562 "/><path style=" stroke:none;fill-rule:nonzero;fill:#efeae7;fill-opacity:1;" d="M 243.113281 428.296875 C 241.738281 428.132812 241.140625 427.40625 240.878906 426.332031 C 240.863281 429.046875 241.339844 431.910156 245.140625 432.902344 C 246.230469 433.179688 246.148438 434.929688 246.246094 435.109375 C 245.96875 434.023438 246.726562 431.3125 247.867188 429.226562 C 246.269531 429.964844 244.683594 428.5 243.113281 428.296875 Z M 243.113281 428.296875 "/><path style=" stroke:none;fill-rule:nonzero;fill:#efeae7;fill-opacity:1;" d="M 357.925781 501.488281 C 357.992188 501.300781 358.082031 501.128906 358.152344 500.941406 C 358.0625 501.128906 357.964844 501.300781 357.859375 501.480469 C 357.890625 501.480469 357.902344 501.488281 357.925781 501.488281 Z M 357.925781 501.488281 "/><path style=" stroke:none;fill-rule:nonzero;fill:#efeae7;fill-opacity:1;" d="M 350.644531 556.914062 C 350.261719 556.753906 349.867188 556.65625 349.5 556.53125 C 349.171875 556.574219 348.863281 556.679688 348.527344 556.710938 C 347.445312 556.890625 346.425781 557.25 345.507812 557.839844 C 345.539062 558.144531 345.613281 558.4375 345.628906 558.757812 C 345.671875 560.277344 346.441406 561.503906 347.847656 562.070312 C 349.910156 562.886719 352.476562 564.832031 353.984375 561.882812 C 355.421875 559.089844 352.96875 557.765625 350.644531 556.914062 Z M 350.644531 556.914062 "/><path style=" stroke:none;fill-rule:nonzero;fill:#efeae7;fill-opacity:1;" d="M 250.761719 426.53125 C 252.371094 426.203125 253.796875 427.003906 254.746094 428.328125 C 255.21875 428.984375 255.726562 429.417969 256.265625 429.761719 C 255.832031 429.328125 255.421875 428.785156 255.054688 427.953125 C 254.261719 426.144531 252.363281 425.636719 250.761719 426.53125 Z M 250.761719 426.53125 "/><path style=" stroke:none;fill-rule:nonzero;fill:#efeae7;fill-opacity:1;" d="M 336.355469 469.949219 C 335.980469 467.953125 335.578125 465.996094 334.800781 463.746094 C 333.730469 468.066406 326.726562 469.613281 328.753906 473.933594 C 330.316406 477.285156 329.222656 482.191406 333.269531 484.367188 C 334.054688 481.914062 336.625 480.8125 338.351562 479.753906 C 340.066406 478.667969 342.398438 482.144531 345.15625 482.371094 C 346.675781 482.488281 345.957031 484.367188 345.769531 485.570312 C 345.53125 487.085938 345.394531 488.648438 345.214844 490.183594 C 347.160156 492.828125 350.203125 493.0625 352.984375 493.855469 C 354.269531 493.242188 355.414062 492.359375 356.925781 493.203125 C 359.496094 495.160156 358.957031 497.742188 358.382812 500.335938 C 358.308594 500.546875 358.226562 500.738281 358.152344 500.949219 C 358.21875 500.792969 358.308594 500.671875 358.367188 500.5 C 359.757812 499.246094 360.761719 500.410156 361.875 500.972656 C 363.390625 497.105469 364.25 493.007812 365.980469 489.226562 C 363.25 486.996094 361.539062 483.910156 359.714844 481.039062 C 357.550781 477.660156 354.597656 476.53125 351.027344 476.394531 C 347.152344 476.253906 343.871094 475.066406 341.371094 472.207031 C 338.457031 474.28125 336.933594 473.039062 336.355469 469.949219 Z M 336.355469 469.949219 "/><path style=" stroke:none;fill-rule:nonzero;fill:#efeae7;fill-opacity:1;" d="M 337.230469 261.933594 C 337.507812 261.550781 337.738281 261.199219 337.671875 261.117188 C 333.582031 256.257812 339.699219 248.644531 333.117188 244.445312 C 330.941406 243.054688 331.953125 242.253906 333.8125 241.28125 C 335.464844 240.414062 339.40625 241.230469 338.523438 238.964844 C 337.34375 235.945312 337.746094 231.660156 334.1875 229.941406 C 331.332031 228.5625 328.242188 225.207031 325.335938 230.71875 C 324.476562 232.339844 320.183594 231.480469 318.808594 234.351562 C 318.367188 238.65625 315.652344 241.640625 313.074219 244.691406 C 313.164062 244.839844 313.269531 244.921875 313.351562 245.09375 C 314.03125 247.351562 313.027344 249.4375 312.550781 251.523438 C 311.988281 253.976562 310.121094 255.046875 307.546875 254.726562 C 302.5 254.113281 300.453125 256.421875 301.714844 261.425781 C 302.046875 262.761719 302.933594 264.011719 301.707031 265.296875 C 304.054688 266.203125 306.226562 266.320312 307.464844 262.679688 C 308.855469 261.625 310.402344 261.109375 312.140625 261.238281 C 316.46875 263.277344 312.535156 265.132812 312.011719 267.078125 C 311.757812 267.179688 311.496094 267.277344 311.234375 267.382812 C 309.402344 267.890625 308.304688 268.796875 307.5625 269.910156 C 308.117188 272.011719 308.003906 274.277344 307.953125 276.496094 C 307.960938 276.480469 307.960938 276.476562 307.96875 276.460938 C 308.789062 272.460938 311.945312 270.382812 315.90625 270.917969 C 318.972656 271.332031 320.828125 274.636719 320.421875 278.824219 C 320.167969 281.410156 320.40625 284.109375 317.664062 286.210938 C 321.199219 286.53125 320.40625 283.945312 320.394531 282.933594 C 320.347656 279.570312 320.984375 276.519531 323.046875 273.871094 C 324.101562 272.542969 324.011719 271.441406 323.265625 270.015625 C 321.53125 266.726562 322.171875 263.628906 325.492188 262.605469 C 329.253906 261.4375 333.296875 259.40625 337.230469 261.933594 Z M 337.230469 261.933594 "/><path style=" stroke:none;fill-rule:nonzero;fill:#efeae7;fill-opacity:1;" d="M 391.300781 256.863281 C 389.476562 256.40625 387.960938 255.652344 386.785156 254.1875 C 388.746094 255.691406 388.5 257.019531 386.628906 258.574219 C 385.1875 259.78125 383.734375 261.402344 384.878906 263.441406 C 386.167969 265.753906 388.542969 265.707031 390.71875 265.066406 C 392.746094 264.46875 396.035156 264.257812 396.050781 262.089844 C 396.082031 259.875 393.988281 257.535156 391.300781 256.863281 Z M 391.300781 256.863281 "/><path style=" stroke:none;fill-rule:nonzero;fill:#efeae7;fill-opacity:1;" d="M 358.503906 440.34375 C 358.464844 440.1875 358.457031 440.019531 358.441406 439.863281 C 358.425781 439.894531 358.414062 439.902344 358.414062 439.9375 C 358.390625 440.191406 358.375 440.3125 358.503906 440.34375 Z M 358.503906 440.34375 "/><path style=" stroke:none;fill-rule:nonzero;fill:#efeae7;fill-opacity:1;" d="M 358.597656 440.363281 C 358.53125 440.378906 358.53125 440.335938 358.503906 440.335938 C 358.523438 440.460938 358.503906 440.597656 358.546875 440.714844 C 358.457031 441.058594 359.226562 440.34375 358.597656 440.363281 Z M 358.597656 440.363281 "/><path style=" stroke:none;fill-rule:nonzero;fill:#efeae7;fill-opacity:1;" d="M 192.121094 479.242188 C 191.890625 478.585938 191.792969 477.90625 191.613281 477.242188 C 191.433594 477.03125 191.210938 476.875 191.136719 476.492188 C 189.175781 467.804688 186.671875 459.234375 185.691406 450.367188 C 185.496094 448.632812 185.0625 446.988281 184.101562 445.5 C 181.664062 441.769531 179.742188 441.710938 177.527344 445.597656 C 175.875 448.507812 174.191406 449.058594 171.71875 446.621094 C 170.664062 445.582031 168.839844 444.679688 167.898438 445.5625 C 165.488281 447.847656 162.648438 447.421875 159.921875 447.574219 C 160.765625 450.554688 161.011719 453.644531 160.546875 456.664062 C 159.835938 461.164062 161.519531 465.023438 163.03125 468.972656 C 164.285156 472.238281 167.03125 473.136719 170.351562 472.722656 C 171.824219 472.558594 173.738281 471.222656 174.359375 473.867188 C 176.367188 470.429688 179.195312 471.527344 181.476562 473.089844 C 184.316406 475.050781 186.984375 477.164062 190.164062 478.652344 C 191.757812 479.394531 193.125 480.746094 193.265625 482.839844 C 193.3125 483.503906 193.460938 483.984375 193.671875 484.367188 C 193.691406 484.289062 193.707031 484.230469 193.730469 484.179688 C 193.527344 483.722656 193.378906 483.167969 193.304688 482.445312 C 193.191406 481.335938 192.644531 480.230469 192.121094 479.242188 Z M 192.121094 479.242188 "/><path style=" stroke:none;fill-rule:nonzero;fill:#efeae7;fill-opacity:1;" d="M 174.402344 473.972656 C 174.394531 473.914062 174.359375 473.914062 174.351562 473.851562 C 174.34375 473.851562 174.34375 473.859375 174.34375 473.859375 C 174.386719 473.875 174.410156 473.988281 174.402344 473.972656 Z M 174.402344 473.972656 "/><path style=" stroke:none;fill-rule:nonzero;fill:#efeae7;fill-opacity:1;" d="M 338.71875 83.238281 C 339.457031 82.476562 340.296875 81.78125 341.289062 81.160156 C 339.976562 81.714844 339.191406 82.421875 338.71875 83.238281 Z M 338.71875 83.238281 "/><path style=" stroke:none;fill-rule:nonzero;fill:#efeae7;fill-opacity:1;" d="M 279.078125 432.035156 C 278.695312 432.214844 278.328125 432.328125 277.96875 432.417969 C 278.121094 432.433594 278.238281 432.417969 278.394531 432.441406 C 280.839844 432.777344 283.609375 433.328125 285.410156 434.871094 C 287.855469 436.933594 290.179688 437.285156 292.757812 436.378906 C 292.085938 436 291.398438 435.585938 290.890625 435.019531 C 287.621094 431.339844 284.117188 429.570312 279.078125 432.035156 Z M 279.078125 432.035156 "/><path style=" stroke:none;fill-rule:nonzero;fill:#efeae7;fill-opacity:1;" d="M 259.03125 430.449219 C 257.960938 430.496094 257.058594 430.285156 256.273438 429.761719 C 257.117188 430.617188 258.058594 430.726562 259.03125 430.449219 Z M 259.03125 430.449219 "/><path style=" stroke:none;fill-rule:nonzero;fill:#efeae7;fill-opacity:1;" d="M 261.296875 429.179688 C 260.558594 429.835938 259.785156 430.226562 259.023438 430.449219 C 259.269531 430.4375 259.496094 430.457031 259.765625 430.421875 C 262.664062 430.023438 264.4375 431.632812 265.417969 434.316406 C 266.328125 436.796875 266.726562 439.527344 268.667969 441.539062 C 267.9375 436.386719 270.671875 432.867188 275.472656 432.402344 C 273.371094 431.902344 271.449219 430.339844 269.671875 429.226562 C 266.605469 427.3125 264.332031 426.546875 261.296875 429.179688 Z M 261.296875 429.179688 "/><path style=" stroke:none;fill-rule:nonzero;fill:#efeae7;fill-opacity:1;" d="M 241.925781 412.394531 C 242 412.789062 242.1875 413.148438 242.359375 413.507812 C 242.441406 412.5 242.335938 411.421875 241.925781 410.21875 C 241.925781 410.945312 241.796875 411.632812 241.925781 412.394531 Z M 241.925781 412.394531 "/><path style=" stroke:none;fill-rule:nonzero;fill:#efeae7;fill-opacity:1;" d="M 266.851562 381.34375 C 267.832031 381.097656 268.722656 380.804688 269.394531 380.558594 C 268.765625 380.804688 267.773438 380.96875 266.851562 381.34375 Z M 266.851562 381.34375 "/><path style=" stroke:none;fill-rule:nonzero;fill:#efeae7;fill-opacity:1;" d="M 143.351562 182.6875 C 142.960938 182.867188 142.582031 183.066406 142.253906 183.359375 L 142.253906 183.375 C 142.261719 183.375 142.265625 183.375 142.265625 183.375 C 142.582031 183.058594 142.960938 182.875 143.351562 182.6875 Z M 143.351562 182.6875 "/><path style=" stroke:none;fill-rule:nonzero;fill:#efeae7;fill-opacity:1;" d="M 809.476562 384.191406 C 798.605469 170.507812 621.347656 0 405 0 C 202.621094 0 34.429688 149.214844 4.671875 343.40625 C 1.601562 363.496094 0 384.066406 0 405 C 0 425.933594 1.601562 446.511719 4.671875 466.59375 C 34.429688 660.785156 202.621094 810 405 810 C 621.347656 810 798.613281 639.5 809.476562 425.808594 C 809.828125 418.914062 810 411.976562 810 405 C 810 398.023438 809.820312 391.085938 809.476562 384.191406 Z M 97.429688 611.484375 C 94.773438 611.089844 94.183594 608.375 93.429688 606.257812 C 93.019531 605.121094 93.480469 603.367188 95.125 603.53125 C 97.863281 603.792969 98.925781 605.953125 99.492188 608.234375 C 99.417969 609.863281 99.140625 611.730469 97.429688 611.484375 Z M 127.867188 625.347656 C 125.347656 627.460938 122.828125 626.019531 120.636719 624.351562 C 111.964844 617.78125 108.601562 609.121094 110.597656 598.640625 C 120.441406 601.292969 125.21875 609.003906 129.035156 617.59375 C 130.289062 620.414062 130.328125 623.285156 127.867188 625.347656 Z M 280.511719 712.699219 C 278.828125 712.527344 276.625 712.226562 276.847656 710.15625 C 277.050781 708.175781 279.519531 708.4375 281.082031 708.097656 C 282.644531 707.777344 284.019531 708.578125 283.972656 710.289062 C 283.914062 712.308594 282.140625 712.480469 280.511719 712.699219 Z M 337.664062 737.527344 C 336.714844 736.898438 335.765625 736.273438 334.816406 735.628906 C 333.964844 734.417969 332.675781 733.847656 331.398438 733.234375 C 329.1875 732.152344 328.753906 730.238281 329.296875 728.09375 C 329.867188 725.902344 331.914062 726.179688 333.539062 725.984375 C 334.597656 725.828125 335.71875 726.207031 336.796875 726.101562 C 343.203125 725.429688 344.714844 726.261719 345.074219 730.820312 C 345.425781 735.128906 343.285156 737.085938 337.664062 737.527344 Z M 353.574219 685.453125 C 352.609375 686.066406 352.109375 686.417969 352.722656 687.480469 C 352.722656 687.480469 352.730469 687.507812 352.722656 687.507812 C 346.867188 691.089844 340.804688 693.542969 333.882812 690.617188 C 332.4375 690.003906 330.90625 688.734375 329.453125 689.511719 C 325.019531 691.84375 323.390625 689.019531 322.226562 685.714844 C 321.105469 682.558594 318.226562 680.5625 316.828125 677.363281 C 320.234375 676.292969 322.988281 679.390625 324.894531 679.113281 C 329.195312 678.484375 334.246094 679.246094 337.828125 675.835938 C 340.320312 673.460938 341.394531 672.847656 342.261719 677.09375 C 343.257812 681.976562 348.199219 683.914062 352.753906 681.8125 C 353.058594 681.828125 353.375 681.828125 353.679688 681.828125 C 355.375 683.097656 355.078125 684.503906 353.574219 685.453125 Z M 387.054688 635.320312 C 385.097656 635.277344 383.699219 634.429688 383.730469 632.269531 C 383.757812 630.679688 384.707031 629.496094 386.332031 629.5625 C 388.492188 629.625 389.304688 631.449219 390.160156 633.011719 C 389.816406 634.878906 388.558594 635.351562 387.054688 635.320312 Z M 489.769531 304.878906 C 489.769531 303.59375 488.992188 301.492188 488.105469 302.472656 C 484.949219 305.933594 483.664062 302.300781 481.710938 301.320312 C 480.605469 300.757812 479.566406 300.050781 478.496094 299.40625 C 476.132812 299.5625 473.515625 298.851562 471.796875 301.289062 C 468.949219 306.082031 468.964844 306.066406 465.410156 301.335938 C 464.875 300.617188 464.171875 299.847656 463.371094 299.527344 C 460.230469 298.300781 459.863281 296.648438 462.277344 294.34375 C 463.394531 293.261719 464.417969 291.480469 462.675781 290.882812 C 456.925781 288.9375 456.859375 281.171875 450.363281 279.773438 C 447.574219 279.175781 450.054688 276.070312 450.539062 274.140625 C 445.179688 274.03125 440.34375 271.890625 435.160156 272.660156 C 433.6875 272.878906 433.136719 271.652344 433 270.179688 C 432.664062 266.402344 435.910156 264.832031 437.816406 262.539062 C 438.503906 261.691406 440.183594 262.824219 440.476562 264.257812 C 440.796875 265.828125 441.605469 266.015625 442.816406 265.378906 C 443.503906 265.027344 444.46875 264.640625 444.640625 264.070312 C 445.082031 262.636719 443.601562 262.449219 442.757812 261.8125 C 440.351562 259.980469 436.722656 259.226562 435.9375 255.890625 C 435.789062 255.832031 435.648438 255.773438 435.511719 255.71875 C 435.085938 255.660156 434.667969 255.613281 434.226562 255.570312 C 433.492188 254.996094 432.957031 254.394531 432.53125 253.777344 C 432.050781 253.574219 431.640625 253.253906 431.4375 252.558594 C 430.964844 250.875 432.082031 249.65625 433.277344 248.632812 C 433.597656 248.355469 433.933594 248.085938 434.257812 247.808594 C 434.464844 247.089844 434.652344 246.367188 434.824219 245.632812 C 430.710938 247.472656 427.832031 250.589844 426.023438 254.890625 C 425.628906 255.832031 424.617188 256.347656 423.570312 255.824219 C 425.015625 256.992188 426.441406 258.382812 427.953125 259.636719 C 428.679688 260.234375 429.410156 260.910156 429.808594 261.753906 C 430.40625 263.007812 432.09375 265.082031 430.699219 265.597656 C 426.039062 267.308594 429.597656 274.710938 423.917969 275 C 420.695312 275.167969 419.871094 276.296875 421.046875 279.046875 C 421.917969 281.082031 421.449219 283.179688 421.523438 285.238281 C 421.988281 285.238281 422.472656 285.335938 422.914062 285.605469 C 425.523438 287.21875 428.214844 289.035156 428.402344 292.585938 C 428.574219 295.792969 427.3125 297.859375 424.082031 299.195312 C 418.855469 301.363281 416.066406 305.820312 414.660156 311.183594 C 414.554688 311.21875 414.472656 311.195312 414.367188 311.203125 C 416.910156 317.230469 410.601562 325.867188 404.085938 324.347656 C 402.375 323.945312 400.65625 324.09375 398.9375 324.324219 C 392.871094 325.148438 390.726562 330.300781 394.414062 335.25 C 396.066406 337.46875 398.351562 338.703125 400.910156 339.707031 C 405.738281 341.621094 406.152344 343.195312 403.332031 347.542969 C 401.753906 349.972656 402.644531 351.929688 405.65625 353.246094 C 407.101562 353.875 408.707031 354.285156 409.628906 356.011719 C 410.085938 356.84375 410.945312 357.71875 410.195312 358.292969 C 408.125 359.898438 406.078125 361.433594 404.222656 363.363281 C 403.101562 364.535156 401.464844 363.675781 399.992188 363.136719 C 399.992188 363.167969 399.992188 363.199219 399.992188 363.226562 C 400.035156 363.796875 399.945312 364.355469 399.945312 364.925781 C 400.910156 367.414062 402.152344 367.101562 407.46875 365.628906 C 407.9375 366.792969 409.015625 367.378906 409.917969 368.09375 C 412.460938 370.113281 412.304688 372.460938 409.382812 375.984375 C 407.910156 376.789062 405.996094 376.960938 405.015625 378.523438 C 404.230469 379.78125 401.933594 380.222656 402.546875 382.128906 C 403.117188 383.894531 405.292969 381.351562 406.472656 383.878906 C 402.980469 384.492188 399.839844 386.054688 396.34375 386.300781 C 395.714844 386.972656 395.011719 387.625 394.339844 388.167969 C 391.378906 388.417969 388.257812 390.785156 385.433594 387.730469 C 385.402344 387.214844 385.449219 386.710938 385.464844 386.210938 C 382.503906 385.671875 379.519531 386.316406 376.542969 386.382812 C 376.25 386.964844 375.960938 387.550781 375.59375 388.253906 C 373.007812 388.96875 370.511719 389.824219 368.992188 392.28125 C 368.746094 392.695312 368.394531 393.261719 368.042969 393.277344 C 362.21875 393.644531 356.738281 397.875 350.667969 395.332031 C 350.652344 395.347656 350.644531 395.378906 350.636719 395.398438 C 350.726562 395.617188 350.824219 395.847656 350.898438 396.035156 C 352.3125 399.609375 354.9375 400.648438 358.351562 400.109375 C 363.21875 399.332031 366.332031 401.066406 367.488281 405.964844 C 368.410156 408.992188 367.765625 411.386719 365.007812 413.292969 C 361.695312 415.609375 359.203125 419.347656 354.359375 418.578125 C 352.707031 418.324219 352.625 419.648438 352.535156 420.828125 C 352.535156 422.78125 350.808594 423.332031 349.671875 424.371094 C 347.652344 425.140625 346.808594 426.980469 345.84375 428.648438 C 343.839844 432.148438 344.109375 432.664062 348.078125 433.058594 C 351.054688 433.359375 353.636719 434.9375 356.601562 435.402344 C 358.972656 435.789062 358.246094 438.011719 358.421875 439.878906 C 358.710938 437.679688 360.507812 438.039062 361.925781 437.851562 C 366.480469 437.316406 370.980469 438.527344 375.535156 438.203125 C 376.925781 438.113281 378.203125 438.890625 378.136719 440.335938 C 377.816406 446.71875 382.867188 448.859375 387.054688 451.199219 C 394.882812 455.609375 395.011719 455.386719 396.679688 463.699219 C 398.792969 461.136719 398.855469 457.6875 401.507812 455.625 C 404.894531 452.976562 406.03125 453.007812 407.496094 456.964844 C 408.003906 458.367188 409.628906 459.410156 409 461.21875 C 408.96875 461.890625 408.984375 462.570312 408.828125 463.230469 C 408.753906 463.273438 408.707031 463.355469 408.640625 463.386719 C 412.515625 465.007812 414.875 467.722656 416.699219 472.089844 C 419.660156 479.140625 419.347656 485.507812 416.746094 492.195312 C 415.902344 494.355469 415.339844 496.890625 412.65625 496.882812 C 412.65625 496.898438 412.671875 496.910156 412.671875 496.925781 C 412.597656 497.644531 412.625 498.332031 412.597656 499.011719 C 413.664062 501.785156 413.5625 505.160156 416.574219 506.945312 C 418.046875 507.8125 419.332031 508.972656 420.714844 510.003906 C 425.890625 510.167969 430.210938 511.746094 432.605469 516.851562 C 433.6875 519.125 435.65625 520.125 438.226562 520.5 C 441.292969 520.957031 444.460938 521.367188 447.132812 523.238281 C 446.375 529.414062 446.59375 531.253906 449.320312 537.996094 C 450.421875 540.738281 451.003906 543.328125 449.046875 545.898438 C 449.046875 546.085938 449.03125 546.304688 449.03125 546.488281 C 449.335938 546.46875 449.628906 546.394531 449.933594 546.511719 C 452.261719 550.570312 451.804688 553.832031 447.386719 557.390625 C 444.359375 559.84375 441.921875 563.011719 438.347656 564.851562 C 436.125 565.988281 435.804688 567.320312 437.269531 569.726562 C 438.511719 571.761719 442.023438 574.402344 437.6875 577.046875 C 436.769531 577.878906 435.675781 578.609375 434.945312 579.582031 C 432.253906 583.027344 428.984375 584.316406 424.617188 583.132812 C 420.5 582.042969 416.597656 582.578125 413.222656 585.570312 C 411.324219 587.253906 410.097656 588.710938 413.695312 589.585938 C 414.996094 589.890625 416.34375 590.058594 415.96875 591.820312 C 415.625 593.242188 414.339844 593.796875 413.039062 593.675781 C 411.503906 593.519531 410.003906 593.015625 408.484375 592.667969 C 406.144531 592.128906 403.839844 592.277344 402.800781 594.667969 C 401.195312 598.378906 398.234375 598.222656 395.308594 597.488281 C 391.496094 596.523438 387.714844 595.515625 383.757812 596.113281 C 381.464844 596.464844 380.476562 593.644531 378.226562 594.042969 C 376.429688 593.855469 374.75 593.03125 373.03125 592.449219 C 373.214844 592.53125 373.425781 592.589844 373.597656 592.679688 C 375.085938 593.445312 376.738281 593.996094 378.113281 595.015625 C 379.199219 596.75 379.863281 598.691406 380.460938 600.652344 C 380.535156 601.96875 381.042969 602.917969 382.480469 603.207031 C 383.75 603.453125 384.191406 604.316406 384.074219 605.570312 C 383.9375 606.960938 382.980469 607.351562 381.867188 607.597656 C 380.347656 607.949219 378.890625 608.515625 377.382812 608.882812 C 375.070312 609.429688 373.46875 610.230469 373.425781 613.0625 C 373.394531 614.78125 371.96875 616.066406 370.710938 617.28125 C 369.605469 618.332031 368.042969 619.546875 369.03125 621.199219 C 369.933594 622.699219 371.554688 621.714844 372.886719 621.445312 C 376.550781 620.675781 380.394531 620.335938 382.1875 616.21875 C 382.433594 615.621094 383.28125 615.769531 383.90625 615.769531 C 387.996094 615.082031 390.496094 617.039062 391.75 620.75 C 393.300781 625.289062 391.355469 627.761719 386.449219 628.121094 C 381.867188 628.457031 377.808594 630.707031 373.582031 632.300781 C 371.683594 633.027344 371.234375 635.449219 372.328125 636.734375 C 377.105469 642.355469 374.667969 647.382812 371.5625 652.464844 C 370.9375 653.078125 370.308594 653.707031 369.695312 654.320312 C 367.503906 652.171875 364.992188 650.707031 361.835938 650.597656 C 356.289062 650.429688 354.636719 645.265625 351.398438 642.214844 C 350.285156 641.160156 352.148438 640.53125 353.089844 640.195312 C 355.773438 639.261719 355.847656 637.578125 354.585938 635.433594 C 352.738281 632.277344 351.519531 628.9375 351.726562 625.199219 C 348.8125 624.507812 346.9375 623.621094 350 620.523438 C 351.722656 618.789062 353.808594 616.832031 351.054688 613.96875 C 349.738281 612.589844 350.15625 610.566406 351.847656 609.542969 C 352.96875 608.851562 353.980469 607.976562 355.0625 607.230469 C 352.417969 607.230469 350 606.84375 348.691406 603.117188 C 347.894531 600.816406 344.648438 601.054688 342.335938 601.90625 C 340.632812 602.550781 338.367188 603.246094 338.539062 605.527344 C 338.726562 608.097656 340.5 609.78125 343.09375 610.214844 C 344.582031 610.453125 345.703125 611.207031 346.847656 612.046875 C 349.296875 613.839844 349.105469 615.621094 346.269531 616.292969 C 343.5625 616.949219 341.640625 617.929688 341.132812 620.832031 C 341.132812 620.847656 340.84375 620.847656 340.722656 620.785156 C 340.589844 620.726562 340.503906 620.570312 340.394531 620.464844 C 334.253906 620.742188 334.007812 621.019531 333.835938 627.972656 C 333.84375 628.277344 333.859375 628.585938 333.875 628.890625 C 335.863281 628.480469 337.640625 629.371094 339.480469 629.855469 C 342.417969 636.554688 341.980469 637.144531 333.84375 637.421875 C 333.859375 638.339844 333.875 639.277344 333.890625 640.195312 C 337.449219 640.824219 340.273438 641.128906 339.175781 646.601562 C 338.417969 650.328125 339.804688 655.105469 344.417969 657.25 C 345.746094 657.863281 347.160156 658.753906 346.417969 660.40625 C 345.664062 662.074219 344.550781 659.996094 343.625 660.269531 C 338.433594 661.863281 333.027344 658.96875 327.757812 661.414062 C 324.304688 663.03125 318.488281 661.722656 315.519531 659.546875 C 315.464844 659.507812 315.40625 659.484375 315.363281 659.441406 C 314.816406 659.023438 314.335938 658.597656 314.039062 658.117188 C 314.023438 657.832031 314.007812 657.542969 313.984375 657.234375 C 313.671875 657.9375 313.109375 658.609375 313.074219 659.3125 C 312.683594 667.515625 311.070312 668.863281 302.644531 667.898438 C 302.03125 667.824219 301.425781 667.695312 300.820312 667.574219 C 299.683594 663.851562 297.058594 662.117188 293.269531 661.9375 C 290.230469 661.722656 287.390625 661.0625 285.65625 658.183594 C 282.105469 656.621094 278.546875 655.105469 275.03125 653.46875 C 274.375 653.160156 273.425781 652.359375 273.460938 651.859375 C 273.804688 647.320312 270.605469 647.113281 267.414062 646.386719 C 263.089844 645.390625 260.871094 641.273438 257.46875 638.851562 C 256.183594 637.945312 257.011719 636.105469 257.761719 634.960938 C 259.40625 632.425781 258.546875 630.761719 256.558594 628.890625 C 253.789062 626.296875 252.476562 617.707031 253.960938 614.320312 C 254.996094 611.980469 257.238281 612.292969 259.160156 611.835938 C 256.003906 610.257812 254.164062 607.875 253.566406 604.253906 C 253.042969 601.0625 249.738281 599.820312 247.308594 601.863281 C 246.042969 602.925781 244.992188 603.574219 243.621094 602.765625 C 241.460938 601.480469 240.625 602.925781 240.234375 604.472656 C 239.847656 606.066406 240.570312 607.246094 242.558594 607.027344 C 245.050781 606.753906 245.011719 607.964844 244.429688 609.90625 C 242.367188 616.800781 242.425781 616.800781 235.21875 615.007812 C 231.957031 614.214844 230.246094 615.449219 230.835938 618.902344 C 231.433594 622.378906 232.632812 625.839844 231.421875 629.347656 C 230.492188 632.0625 229.671875 635.042969 225.550781 632.53125 C 222.636719 630.746094 221.445312 632.546875 221.8125 635.367188 C 222.105469 637.625 221.664062 638.722656 219.179688 638.402344 C 217.746094 638.238281 216.976562 639.335938 216.054688 640.195312 C 212.183594 643.71875 211.6875 643.523438 210.566406 638.28125 C 210.433594 637.652344 210.296875 637.039062 210.15625 636.425781 C 208.796875 632.25 205.511719 629.226562 203.515625 625.371094 C 201.410156 621.292969 196.808594 620.25 192.234375 620.40625 C 191.433594 622.117188 190.453125 623.679688 192.398438 625.472656 C 193.675781 626.640625 194.074219 628.433594 193.707031 631.050781 C 188.144531 626.511719 182.019531 624.261719 175.1875 624.203125 C 171.621094 623.113281 168.175781 621.199219 164.234375 622.65625 C 163.832031 622.8125 163.082031 622.859375 162.886719 622.625 C 159.269531 618.230469 153.488281 617.832031 148.839844 615.515625 C 142.992188 612.59375 139.375 607.179688 133.683594 604.34375 C 132.089844 603.558594 131.042969 602.9375 129.054688 603.53125 C 126.519531 604.300781 123.515625 603.148438 122.976562 600.390625 C 121.578125 593.234375 115.125 592.589844 110.304688 590.386719 C 104.785156 587.84375 102.640625 584.867188 104.421875 578.847656 C 102.246094 574.714844 100.480469 570.40625 98.933594 565.980469 C 98.058594 563.484375 96.660156 561.160156 94.058594 559.949219 C 89.855469 558.96875 87.222656 556.195312 85.757812 552.3125 C 84.070312 547.902344 79.84375 547 76.285156 545.242188 C 74.910156 544.546875 73.773438 545.242188 74.09375 547.058594 C 74.257812 547.992188 74.617188 548.882812 74.753906 549.800781 C 74.9375 551.207031 75.148438 552.925781 73.339844 553.292969 C 71.515625 553.652344 70.730469 551.949219 70.8125 550.601562 C 71.089844 545.773438 68.679688 541.972656 66.675781 537.898438 C 65.464844 535.433594 64.136719 534.585938 61.5625 535.28125 C 57.257812 536.441406 54.242188 534.585938 52.203125 530.902344 C 50.453125 527.707031 48.582031 524.679688 45.195312 522.886719 C 42.230469 521.308594 44.351562 518.667969 44.015625 516.507812 C 43.992188 515.894531 43.976562 515.289062 43.957031 514.675781 C 39.949219 512.425781 39.359375 508.253906 38.222656 504.410156 C 37.570312 502.167969 37.054688 499.894531 36.472656 497.636719 C 34.96875 490.714844 29.546875 485.375 28.5625 478.21875 C 28.449219 477.414062 27.785156 476.679688 26.902344 476.957031 C 25.183594 477.507812 25.9375 478.886719 25.980469 480.097656 C 26.183594 485.734375 27.164062 491.3125 27.621094 496.933594 C 26.65625 495.445312 25.675781 493.972656 24.679688 492.507812 C 18.9375 462.554688 15.484375 432.363281 16.964844 401.777344 C 18.347656 373.15625 22.59375 344.976562 29.660156 317.089844 C 34.085938 299.625 39.621094 282.726562 46.730469 266.261719 C 46.738281 266.261719 46.738281 266.269531 46.738281 266.269531 C 47.558594 262.882812 48.832031 259.652344 50.496094 256.585938 C 53.257812 253.371094 54.078125 249.222656 55.828125 245.519531 C 61.683594 233.183594 68.328125 221.320312 75.546875 209.820312 C 78.160156 209.035156 80.695312 207.898438 83.050781 206.171875 C 79.035156 212.363281 74.992188 218.539062 71.132812 224.832031 C 68.503906 229.125 67.074219 233.871094 64.941406 238.34375 C 62.753906 238.820312 62.207031 240.265625 62.148438 242.375 C 62.09375 244.363281 61.21875 245.328125 59.746094 245.164062 C 61.40625 247.015625 61.804688 249.78125 63.441406 252.011719 C 65.660156 249.386719 68.359375 247.496094 69.832031 244.519531 C 73.054688 238.058594 77.9375 232.8125 82.535156 227.40625 C 86.976562 222.164062 91.015625 216.617188 95.296875 211.332031 C 100.203125 205.265625 105.527344 199.164062 112 194.417969 C 114.257812 195.046875 116.210938 194.386719 117.914062 192.945312 C 119.113281 191.949219 120.414062 191.15625 121.796875 190.457031 C 128.308594 187.136719 130.050781 187.71875 132.621094 194.066406 C 131.5 198.828125 128.636719 202.664062 125.550781 206.285156 C 120.519531 212.175781 114.371094 217.132812 112.660156 225.429688 C 111.808594 229.558594 107.972656 230.375 101.371094 228.75 C 104.964844 236.183594 104.277344 243.089844 99.351562 249.632812 C 98.328125 251.007812 97.609375 252.265625 95.671875 251.414062 C 95.640625 251.390625 95.628906 251.359375 95.597656 251.339844 C 94.589844 254.800781 93.707031 258.21875 90.058594 260.4375 C 87.65625 261.894531 87.589844 266.859375 82.953125 265.246094 C 82.835938 265.84375 82.566406 266.449219 82.617188 267.03125 C 82.738281 268.386719 83.394531 271.007812 83.992188 270.484375 C 87.042969 267.839844 89.144531 275.128906 91.867188 270.996094 C 93.144531 269.066406 95.179688 268.828125 97.160156 268.339844 C 102.425781 267.046875 102.933594 265.789062 100.078125 261.089844 C 99.386719 259.953125 98.714844 258 100.261719 258.097656 C 104.75 258.382812 105.914062 255.113281 107.828125 250.890625 C 108.964844 256.265625 112.855469 258.957031 112.957031 263.480469 C 113.011719 265.550781 114.15625 266.285156 116.113281 265.476562 C 117.5625 264.886719 118.984375 264.214844 120.40625 263.570312 C 120.136719 263.554688 119.859375 263.53125 119.589844 263.511719 C 117.003906 261.246094 114.246094 259.152344 116.710938 255.023438 C 117.183594 254.246094 116.21875 252.675781 116.078125 251.441406 C 115.457031 246.253906 115.214844 241.125 119.5 237.101562 C 120.160156 236.796875 120.808594 236.488281 121.460938 236.183594 C 126.238281 232.601562 129.714844 227.757812 133.78125 223.511719 C 135.988281 221.199219 137.863281 219.40625 141.691406 220.183594 C 145.101562 220.871094 148.773438 219.882812 151.597656 217.28125 C 150.542969 208.414062 155.800781 201.941406 160.195312 195.253906 C 163.277344 190.566406 166.886719 186.230469 170.273438 181.746094 C 170.828125 180.996094 171.5625 180.96875 172.347656 181.332031 C 172.519531 176.527344 175.644531 175.832031 179.667969 175.472656 C 187.171875 174.800781 194.417969 173.058594 201.117188 168.316406 C 198.984375 166.6875 196.273438 167.449219 195 165.378906 C 194.910156 165.234375 194.804688 165.125 194.753906 164.972656 C 192.824219 159.785156 197.894531 158.484375 200.101562 155.660156 C 201.589844 153.746094 203.808594 152.59375 206.328125 154.269531 C 208.726562 155.890625 208.660156 160.03125 206 162.574219 C 204.789062 163.742188 203.121094 164.445312 201.664062 165.363281 C 206.46875 167.667969 210.5 164.585938 214.671875 163.261719 C 220.339844 161.46875 225.769531 158.941406 231.855469 158.761719 C 234.253906 158.804688 236.316406 157.65625 238.464844 156.855469 C 242.261719 155.15625 245.117188 157.886719 245.925781 160.292969 C 246.957031 163.390625 248.558594 163.097656 250.628906 162.964844 C 252.445312 162.851562 254.058594 163.210938 255.457031 164.382812 C 256.496094 164.585938 257.289062 165.050781 257.386719 166.246094 C 259.578125 166.261719 261.769531 166.28125 263.972656 166.304688 C 264.21875 166.132812 264.453125 165.902344 264.742188 165.8125 C 267.1875 164.945312 267.128906 160.628906 270.050781 161.167969 C 272.476562 161.609375 274.417969 163.839844 276.550781 165.332031 C 277.058594 165.675781 277.617188 165.945312 278.128906 166.28125 C 279.0625 166.296875 279.996094 166.296875 280.929688 166.304688 C 283.144531 167.921875 285.34375 167.859375 287.539062 166.28125 L 287.546875 166.269531 C 289.574219 165.058594 291.136719 162.902344 294.089844 163.742188 C 296.648438 164.472656 298.523438 165.492188 299.09375 168.367188 C 299.691406 171.40625 296.804688 171.066406 295.085938 172.472656 C 299.183594 174.574219 304.207031 171.980469 307.324219 175.808594 C 307.414062 177.273438 308.035156 178.171875 309.664062 177.929688 C 311.972656 177.59375 313.84375 178.882812 315.886719 179.539062 C 317.769531 179.824219 319.308594 182.230469 321.523438 180.4375 C 321.550781 178.574219 321.582031 176.707031 321.613281 174.84375 C 322.015625 174.539062 322.269531 174.53125 322.472656 174.605469 C 322.425781 173.585938 321.710938 172.644531 322.015625 171.582031 C 322.015625 171.582031 322.015625 171.582031 322.015625 171.578125 C 321.371094 170.925781 321.328125 169.691406 320.59375 169.148438 C 317.539062 167.597656 316.789062 165.640625 319.375 162.933594 C 320.003906 162.269531 320.664062 161.363281 320.738281 160.519531 C 321.582031 149.496094 329.28125 145.722656 338.539062 144.242188 C 343.421875 143.464844 347.59375 140.113281 352.527344 139.734375 C 351.914062 138.289062 352.25 136.511719 352.410156 134.886719 C 352.683594 131.824219 352.125 130.507812 348.582031 131.179688 C 344.625 131.925781 342.335938 129.199219 342.914062 125.117188 C 342.742188 125.316406 342.5625 125.453125 342.324219 125.609375 C 338.390625 125.886719 338.136719 122.894531 337.492188 120.195312 C 338.964844 117.660156 340.675781 115.53125 344.078125 115.605469 C 345.808594 115.652344 346.816406 114.515625 346.851562 112.691406 C 347.199219 111.898438 347.757812 111.269531 348.246094 110.65625 C 343.878906 109.914062 339.199219 110.859375 335.488281 107.6875 C 334.957031 107.292969 334.578125 106.730469 334.0625 106.320312 C 330.621094 103.636719 331.21875 100.324219 332.601562 96.867188 C 333.179688 95.425781 334.023438 94.527344 335.707031 94.519531 C 339.742188 94.492188 339.914062 92.097656 338.90625 89.085938 C 338.164062 86.894531 337.710938 84.808594 338.660156 83.15625 C 337.035156 84.824219 336.207031 86.863281 337.296875 89.765625 C 338.261719 92.332031 337.007812 93.445312 334.703125 93.894531 C 332.675781 94.289062 330.636719 93.804688 328.59375 93.9375 C 323.453125 94.257812 322.996094 94.691406 322.292969 100.039062 C 321.882812 101.660156 321.179688 103.082031 319.832031 104.121094 C 314.832031 104.988281 311.636719 101.378906 309.140625 98.429688 C 306.390625 95.171875 305.246094 95.015625 303.398438 98.582031 C 302.359375 100.59375 300.738281 101.503906 298.507812 101.683594 C 289.804688 102.429688 286.507812 109.109375 283.269531 115.785156 C 282.621094 117.125 283.234375 118.535156 283.554688 119.917969 C 285.082031 126.34375 283.554688 128.726562 277.183594 130.746094 C 273.371094 131.949219 269.035156 133.019531 265.679688 131.980469 C 261.164062 130.566406 256.101562 129.820312 252.242188 126.527344 C 251.078125 125.527344 249.933594 123.785156 248.9375 126.648438 C 247.757812 128.792969 250.292969 132.195312 246.628906 133.511719 C 242.441406 135.015625 238.441406 137.648438 233.738281 134.925781 C 230.582031 133.117188 227.195312 132.953125 223.808594 134.320312 C 222.113281 135 220.511719 135.582031 219.597656 133.257812 C 212.765625 134.605469 206.574219 137.773438 200.285156 140.503906 C 192.617188 143.832031 187.269531 149.917969 183.046875 157.0625 C 180.03125 162.191406 175.578125 165.839844 170.28125 168.445312 C 168.292969 169.421875 166.320312 168.601562 164.324219 168.160156 C 162.777344 167.824219 161.414062 167.949219 162.191406 170.335938 C 164.699219 178.027344 163.1875 181.699219 155.710938 186.457031 C 154.761719 184.257812 156.21875 182.558594 156.832031 180.691406 C 157.199219 179.585938 157.152344 178.453125 156.007812 177.796875 C 155.050781 177.242188 154.183594 177.78125 153.398438 178.320312 C 151.222656 179.792969 150.15625 182.097656 148.945312 184.292969 C 148.023438 185.992188 146.96875 187.742188 144.691406 187.328125 C 142.550781 186.933594 142.417969 185.003906 142.171875 183.285156 C 139.914062 182.835938 137.648438 182.394531 135.644531 182.007812 C 134.386719 176.675781 136.613281 171.582031 136.53125 166.3125 C 136.667969 166.117188 136.792969 165.917969 136.929688 165.730469 C 140.667969 166.066406 144.882812 163.390625 145.167969 159.792969 C 145.371094 157.117188 146.535156 155.832031 148.660156 154.902344 C 152.226562 154.679688 155.523438 154.089844 155.726562 149.453125 C 155.785156 148.1875 156.675781 147.507812 157.675781 146.941406 C 159.84375 146.605469 162.425781 148.226562 164.152344 145.59375 C 164.382812 145.574219 164.621094 145.550781 164.847656 145.527344 C 167.457031 144.617188 169.207031 143.007812 170.792969 140.570312 C 173.050781 137.09375 177.019531 135.410156 181.011719 134.695312 C 188.203125 133.398438 195.464844 132.4375 200.472656 126.296875 C 204.023438 121.929688 209.25 119.777344 213.394531 116.179688 C 213.84375 115.792969 214.640625 115.335938 215.074219 115.492188 C 220.632812 117.4375 225.507812 114.433594 230.671875 113.535156 C 233.421875 113.0625 235.859375 112.398438 237.535156 109.984375 C 237.796875 109.601562 238.433594 109.003906 238.539062 109.0625 C 243.195312 112.070312 246.644531 107.53125 250.734375 107.121094 C 251.882812 107.007812 252.652344 107.613281 252.675781 108.675781 C 252.757812 113.96875 255.308594 110.984375 257.019531 109.910156 C 258.3125 109.109375 259.339844 107.875 260.839844 106.507812 C 258.457031 105.144531 256.324219 103.910156 254.179688 102.707031 C 253.34375 102.230469 252.511719 101.699219 252.511719 100.621094 C 252.511719 99.269531 253.507812 98.632812 254.621094 98.460938 C 258.828125 97.820312 262.203125 94.246094 267.375 96.277344 C 270.734375 97.601562 274.914062 95.917969 276.324219 91.402344 C 277.550781 87.492188 281.289062 86.894531 284.304688 85.390625 C 287.59375 83.738281 291.414062 83.050781 293.019531 78.925781 C 293.902344 76.660156 296.640625 76.660156 298.664062 75.917969 C 307.023438 72.855469 315.398438 69.816406 323.808594 66.878906 C 326.671875 65.871094 329.722656 66.296875 332.699219 66.175781 C 334.5625 66.101562 336.589844 66.363281 337.910156 64.628906 C 338.949219 63.285156 340.28125 61.898438 341.769531 63.199219 C 343.652344 64.839844 346.980469 65.210938 347.113281 68.570312 C 347.175781 69.976562 347.078125 71.394531 347.054688 72.808594 C 354.007812 78.289062 355.542969 87.730469 362.164062 93.472656 C 363.878906 94.960938 363.609375 96.863281 362.480469 98.574219 C 361.710938 99.726562 360.679688 100.703125 359.726562 101.730469 C 358.398438 103.132812 356.042969 104.070312 356.828125 106.566406 C 357.140625 107.5625 357.726562 108.144531 358.414062 108.59375 C 359.027344 108.171875 359.660156 107.785156 360.257812 107.34375 C 362.5625 106.191406 364.835938 107.125 367.117188 107.417969 C 368.355469 107.574219 370.070312 108.503906 370.734375 107.621094 C 372.941406 104.691406 376.664062 104.113281 379.085938 101.953125 C 381.523438 99.777344 383.011719 99.71875 385.089844 101.691406 C 386.667969 103.195312 388.214844 104.644531 389.015625 106.859375 C 389.890625 109.28125 393.015625 109.476562 394.285156 107.3125 C 395.175781 105.78125 397.015625 105.839844 398.257812 104.464844 C 397.703125 102.378906 394.503906 101.527344 395.101562 98.722656 C 395.46875 96.898438 396.894531 95.820312 397.785156 94.371094 C 399.027344 92.300781 401.082031 92.195312 403.160156 92.171875 C 406.5625 92.152344 409.703125 91.433594 412.214844 88.929688 C 417.121094 87.851562 419.828125 91.589844 422.617188 94.265625 C 427.984375 99.382812 433.367188 102.183594 440.851562 98.78125 C 443.640625 97.519531 446.324219 99.71875 448.386719 101.632812 C 449.832031 102.960938 449.496094 104.40625 447.421875 105.214844 C 444.738281 106.257812 442.121094 107.164062 439.214844 105.9375 C 438.128906 105.472656 436.933594 104.683594 435.625 105.78125 C 436.179688 107.808594 438.195312 108.398438 439.476562 109.675781 C 438.863281 110.609375 438.265625 111.546875 437.652344 112.472656 C 435.296875 113.085938 432.6875 114.082031 433.539062 116.953125 C 434.277344 119.390625 437.121094 118.8125 439.242188 118.789062 C 440.625 118.777344 442.105469 116.988281 443.320312 119.097656 C 438.878906 119.769531 434.726562 121.742188 430.054688 121.480469 C 427.9375 121.371094 426.023438 121.136719 424.289062 119.933594 C 422.5625 118.730469 421.015625 118.582031 419.117188 119.808594 C 416.09375 121.738281 412.253906 120.570312 410.53125 117.46875 C 410.0625 116.652344 409.84375 115.679688 409.292969 114.957031 C 408.3125 113.675781 406.898438 113.5625 405.433594 114.066406 C 404.648438 114.335938 403.960938 114.894531 404.101562 115.777344 C 404.527344 118.140625 406.660156 115.792969 407.765625 117.265625 C 404.828125 120.53125 405.546875 123.171875 409.664062 125.027344 C 411.339844 125.78125 412.117188 126.960938 412.117188 129.09375 C 412.117188 134.214844 414.046875 135.957031 419.273438 136.046875 C 424.445312 136.128906 429.660156 135.859375 434.824219 136.085938 C 437.472656 136.210938 440.640625 136.09375 440.1875 140.691406 C 440.089844 141.484375 443.664062 142.957031 445.679688 143.597656 C 448.101562 144.367188 450.585938 144.964844 452.992188 145.863281 C 453.441406 145.476562 453.957031 145.160156 454.699219 145.085938 C 456.042969 145.070312 457.375 144.921875 458.652344 145.488281 C 461.40625 146.171875 463.183594 148.71875 465.957031 149.386719 C 466.980469 150.296875 468.53125 151.046875 469.21875 149.746094 C 470.839844 146.671875 472.957031 146.746094 475.132812 147.253906 C 484.261719 196.011719 490.292969 250.5625 493.332031 310.824219 C 489.808594 310.898438 489.75 309.984375 489.769531 304.878906 Z M 489.769531 304.878906 "/></g></svg>