<?xml version="1.0" encoding="iso-8859-1"?>
<!-- Uploaded to: SVG Repo, www.svgrepo.com, Generator: SVG Repo Mixer Tools -->
<!DOCTYPE svg PUBLIC "-//W3C//DTD SVG 1.1//EN" "http://www.w3.org/Graphics/SVG/1.1/DTD/svg11.dtd">
<svg fill="#000000" version="1.1" id="Capa_1" xmlns="http://www.w3.org/2000/svg" xmlns:xlink="http://www.w3.org/1999/xlink" 
	 width="800px" height="800px" viewBox="0 0 108.336 108.336"
	 xml:space="preserve">
<g>
	<g>
		<path d="M33.449,53.675c0.375-0.021,0.5-0.122,0.502-0.459c0.174-0.408,0.427-0.784,0.484-1.237
			c0.395-0.186,0.785-0.357,1.016-0.783c0.053-0.099,0.145-0.152,0.24-0.191c-0.103,0.025-0.211,0.049-0.326,0.055
			c-0.334,0.018-0.477-0.277-0.67-0.463c-0.168-0.161-0.367-0.227-0.564-0.245c-0.25-0.022-0.395-0.142-0.449-0.353
			c-0.061-0.227,0.051-0.393,0.256-0.52c0.248-0.15,0.543-0.329,0.451-0.667c-0.043-0.159-0.244-0.276-0.121-0.487
			c-0.061,0.293-0.256,0.35-0.522,0.321c-0.188-0.021-0.288-0.157-0.425-0.25c-0.461-0.312-1.131-0.212-1.48,0.214
			c-0.721,0.877-1.332,1.073-2.397,0.738c-0.348-0.109-0.698-0.15-1.056-0.137c0.018,0.033,0.039,0.064,0.041,0.109
			c0.01,0.053,0.002,0.087,0.004,0.133c0.536,0.207,0.367,0.843,0.613,1.286c0.438-0.419,0.853-0.373,1.276,0.048
			c0.153,0.151,0.415,0.192,0.626,0.285c0.189,0.084,0.436,0.141,0.428,0.399c-0.008,0.214-0.227,0.298-0.397,0.363
			c-0.239,0.091-0.427-0.044-0.511-0.252c-0.131-0.323-0.299-0.507-0.661-0.33c-0.071,0.035-0.182,0.089-0.188,0.144
			c-0.021,0.189,0.118,0.46-0.229,0.466c-0.327,0.006-0.694,0.131-0.97-0.134c-0.318-0.307-0.756-0.311-1.201-0.607
			c0.086,0.214,0.127,0.306,0.16,0.399c0.082,0.225,0.591,0.378,0.152,0.688c-0.357,0.254-0.889,0.088-1.089-0.295
			c-0.019-0.037-0.036-0.076-0.046-0.116c-0.082-0.36-0.043-0.894-0.479-0.931c-0.161-0.014-0.294,0.048-0.416,0.134
			c-0.02,0.097-0.024,0.209-0.016,0.339c0.01,0.127-0.11,0.221-0.154,0.338c-0.107,0.29-0.037,0.486,0.281,0.574
			c0.263,0.072,0.518,0.172,0.771,0.266c0.436,0.161,0.488,0.486,0.137,0.803c-0.152,0.138-0.334,0.245-0.439,0.445
			c0.797,0.003,0.802,0.003,0.848,0.846c0.018,0.35,0.225,0.526,0.52,0.635c0.285,0.104,0.555,0.234,0.816,0.382
			c-0.025-0.608,0.209-0.696,1.003-0.63c0.841,0.07,1.729,0.236,2.431-0.49c0.126-0.131,0.309-0.252,0.51-0.173
			c0.245,0.097,0.082,0.334,0.142,0.495c0.005,0.014,0.003,0.023,0.007,0.036C32.365,54.217,32.758,53.712,33.449,53.675z"/>
		<path d="M32.182,56.468c0.003,0.107,0.008,0.216,0.009,0.324c0.001,0.089,0.011,0.163,0.026,0.229
			c0.001-0.073,0.004-0.147,0.006-0.219C32.231,56.646,32.213,56.54,32.182,56.468z"/>
		<path d="M32.39,55.593c0.093-0.116,0.063-0.202,0.025-0.284c-0.026,0.309-0.205,0.555-0.54,0.75
			c-0.121,0.07-0.194,0.217-0.244,0.387c0.265-0.106,0.467-0.164,0.551,0.022C32.171,56.158,32.18,55.855,32.39,55.593z"/>
		<path d="M39.156,58.365c0.008,0.004,0.014,0.01,0.02,0.014c0.025,0.014,0.037,0.016,0.041-0.002
			c0.002-0.003,0.002-0.002,0.004-0.005c-0.011,0-0.021-0.001-0.042-0.013C39.172,58.361,39.164,58.361,39.156,58.365z"/>
		<path d="M55.807,31.018c-0.104,0.057-0.281,0.174-0.426,0.082c-0.002,0.002-0.006,0.004-0.008,0.007
			c-0.039,0.019-0.08,0.024-0.119,0.03c-0.025,0.346-0.021,0.67,0.463,0.802c0.143,0.038,0.371,0.21,0.424,0.134
			c0.254-0.367,0.736-0.207,1.008-0.486c0.093-0.096,0.062-0.215-0.055-0.253C56.676,31.195,56.346,30.74,55.807,31.018z"/>
		<path d="M33.152,57.408c0.064-0.029,0.13-0.084,0.195-0.182c0.055-0.08,0.121-0.14,0.191-0.18
			c-0.025,0.006-0.049,0.004-0.073,0.014C33.356,57.102,33.244,57.238,33.152,57.408z"/>
		<path d="M32.516,57.284c-0.184-0.022-0.264-0.119-0.299-0.263c-0.002,0.363,0.062,0.746,0.57,0.879
			c0.146,0.037,0.135,0.271,0.148,0.295c-0.037-0.145,0.064-0.508,0.217-0.787C32.938,57.507,32.726,57.311,32.516,57.284z"/>
		<path d="M47.872,67.073c0.009-0.025,0.021-0.048,0.03-0.073c-0.012,0.025-0.025,0.048-0.039,0.072
			C47.867,67.072,47.869,67.073,47.872,67.073z"/>
		<path d="M46.898,74.486c-0.051-0.021-0.104-0.034-0.153-0.051c-0.044,0.006-0.085,0.02-0.13,0.024
			c-0.145,0.024-0.281,0.072-0.404,0.151c0.004,0.041,0.014,0.08,0.016,0.123c0.006,0.203,0.109,0.367,0.297,0.443
			c0.276,0.109,0.619,0.369,0.821-0.025C47.537,74.777,47.209,74.6,46.898,74.486z"/>
		<path d="M33.539,57.048c0.215-0.044,0.406,0.063,0.533,0.24c0.063,0.088,0.131,0.146,0.203,0.192
			c-0.058-0.058-0.113-0.131-0.162-0.242C34.007,56.996,33.753,56.928,33.539,57.048z"/>
		<path d="M44.987,62.855c-0.05-0.267-0.104-0.529-0.208-0.83c-0.143,0.578-1.08,0.785-0.809,1.363
			c0.209,0.448,0.063,1.104,0.604,1.395c0.105-0.328,0.449-0.475,0.68-0.617c0.229-0.145,0.541,0.32,0.91,0.35
			c0.203,0.016,0.107,0.267,0.082,0.428c-0.032,0.203-0.05,0.412-0.074,0.617c0.26,0.354,0.667,0.385,1.039,0.491
			c0.172-0.082,0.325-0.2,0.527-0.087c0.344,0.262,0.272,0.607,0.195,0.954c-0.01,0.028-0.021,0.054-0.031,0.082
			c0.009-0.021,0.021-0.037,0.029-0.06c0.186-0.168,0.32-0.012,0.469,0.063c0.203-0.517,0.318-1.065,0.549-1.571
			c-0.365-0.298-0.594-0.711-0.838-1.095c-0.289-0.452-0.684-0.603-1.162-0.621c-0.518-0.019-0.957-0.178-1.291-0.56
			C45.268,63.434,45.064,63.268,44.987,62.855z"/>
		<path d="M45.104,35.033c0.037-0.051,0.068-0.098,0.059-0.109c-0.547-0.65,0.271-1.668-0.609-2.23
			c-0.291-0.186-0.156-0.293,0.093-0.423c0.221-0.116,0.748-0.007,0.63-0.31c-0.158-0.404-0.104-0.977-0.58-1.207
			c-0.382-0.184-0.795-0.633-1.184,0.104c-0.115,0.217-0.689,0.102-0.873,0.486c-0.059,0.576-0.422,0.975-0.767,1.383
			c0.012,0.02,0.026,0.031,0.037,0.054c0.091,0.302-0.043,0.581-0.107,0.86c-0.075,0.328-0.325,0.471-0.669,0.428
			c-0.675-0.082-0.949,0.227-0.78,0.896c0.044,0.179,0.163,0.346-0.001,0.518c0.314,0.121,0.604,0.137,0.77-0.35
			c0.186-0.141,0.393-0.21,0.625-0.193c0.579,0.273,0.053,0.521-0.017,0.781c-0.034,0.014-0.069,0.027-0.104,0.041
			c-0.245,0.068-0.392,0.189-0.491,0.338c0.074,0.281,0.059,0.584,0.052,0.881c0.001-0.002,0.001-0.003,0.002-0.005
			c0.11-0.535,0.532-0.813,1.062-0.741c0.41,0.055,0.658,0.497,0.604,1.057c-0.034,0.346-0.002,0.707-0.369,0.988
			c0.473,0.043,0.367-0.303,0.365-0.438c-0.006-0.45,0.079-0.858,0.355-1.212c0.141-0.178,0.129-0.325,0.029-0.516
			c-0.232-0.44-0.146-0.854,0.298-0.991C44.037,34.967,44.578,34.695,45.104,35.033z"/>
		<path d="M52.336,34.355c-0.244-0.061-0.447-0.162-0.604-0.358c0.262,0.201,0.229,0.379-0.021,0.587
			c-0.193,0.161-0.387,0.378-0.234,0.651c0.172,0.309,0.49,0.303,0.781,0.217c0.271-0.08,0.711-0.108,0.713-0.398
			C52.975,34.758,52.695,34.445,52.336,34.355z"/>
		<path d="M47.949,58.895c-0.005-0.021-0.006-0.043-0.008-0.064c-0.002,0.004-0.004,0.005-0.004,0.01
			C47.934,58.875,47.932,58.891,47.949,58.895z"/>
		<path d="M47.962,58.898c-0.009,0.002-0.009-0.004-0.013-0.004c0.003,0.017,0,0.035,0.006,0.051
			C47.943,58.991,48.046,58.895,47.962,58.898z"/>
		<path d="M25.696,64.098c-0.031-0.088-0.044-0.179-0.068-0.268c-0.024-0.028-0.054-0.049-0.064-0.1
			c-0.262-1.162-0.597-2.308-0.728-3.494c-0.026-0.232-0.084-0.452-0.213-0.651c-0.326-0.499-0.583-0.507-0.879,0.013
			c-0.221,0.389-0.446,0.463-0.777,0.137c-0.141-0.139-0.385-0.26-0.511-0.142c-0.322,0.306-0.702,0.249-1.067,0.269
			c0.113,0.399,0.146,0.812,0.084,1.216c-0.095,0.602,0.13,1.118,0.332,1.646c0.168,0.437,0.535,0.557,0.979,0.502
			c0.197-0.022,0.453-0.201,0.536,0.153c0.269-0.46,0.647-0.313,0.952-0.104c0.38,0.262,0.737,0.545,1.162,0.744
			c0.213,0.099,0.396,0.28,0.415,0.56c0.006,0.089,0.026,0.153,0.054,0.204c0.003-0.01,0.005-0.018,0.008-0.025
			c-0.027-0.061-0.047-0.135-0.057-0.232C25.839,64.378,25.766,64.23,25.696,64.098z"/>
		<path d="M23.326,63.393c-0.001-0.008-0.006-0.008-0.007-0.016c-0.001,0-0.001,0.001-0.001,0.001
			C23.324,63.38,23.327,63.395,23.326,63.393z"/>
		<path d="M45.303,11.133c0.099-0.102,0.211-0.195,0.344-0.278C45.471,10.929,45.366,11.024,45.303,11.133z"/>
		<path d="M37.326,57.784c-0.051,0.024-0.1,0.039-0.148,0.051c0.02,0.002,0.036,0,0.057,0.003c0.327,0.045,0.697,0.119,0.938,0.325
			c0.327,0.276,0.638,0.323,0.983,0.202c-0.09-0.051-0.182-0.106-0.25-0.182C38.469,57.691,38,57.454,37.326,57.784z"/>
		<path d="M34.645,57.572c-0.143,0.006-0.264-0.022-0.369-0.092C34.389,57.594,34.515,57.609,34.645,57.572z"/>
		<path d="M34.948,57.402c-0.099,0.088-0.202,0.14-0.304,0.17c0.033-0.002,0.063,0.001,0.099-0.004
			c0.388-0.053,0.625,0.162,0.756,0.521c0.122,0.332,0.175,0.697,0.435,0.966c-0.098-0.689,0.268-1.16,0.91-1.222
			c-0.281-0.067-0.538-0.276-0.776-0.425C35.658,57.152,35.354,57.05,34.948,57.402z"/>
		<path d="M32.357,55.157c0.01,0.053,0.035,0.101,0.058,0.149c0.011-0.135-0.003-0.279-0.058-0.44
			C32.357,54.963,32.34,55.055,32.357,55.157z"/>
		<path d="M35.691,51.004c0.131-0.033,0.25-0.072,0.34-0.105C35.947,50.932,35.814,50.954,35.691,51.004z"/>
		<path d="M19.173,24.434c-0.052,0.024-0.103,0.051-0.147,0.09v0.002c0.001,0,0.002,0,0.002,0
			C19.07,24.484,19.121,24.459,19.173,24.434z"/>
		<path d="M108.266,51.385C106.812,22.805,83.104,0,54.168,0C27.1,0,4.605,19.957,0.625,45.93C0.214,48.617,0,51.368,0,54.168
			s0.214,5.552,0.625,8.238c3.98,25.973,26.475,45.93,53.543,45.93c28.936,0,52.645-22.804,54.098-51.385
			c0.047-0.922,0.07-1.85,0.07-2.783C108.336,53.235,108.312,52.307,108.266,51.385z M13.031,81.785
			c-0.355-0.053-0.434-0.416-0.535-0.699c-0.055-0.152,0.007-0.387,0.227-0.365c0.366,0.035,0.508,0.324,0.584,0.629
			C13.297,81.568,13.26,81.818,13.031,81.785z M17.102,83.639c-0.337,0.283-0.674,0.09-0.967-0.133
			c-1.16-0.879-1.61-2.037-1.343-3.439c1.317,0.355,1.956,1.386,2.466,2.535C17.426,82.979,17.431,83.363,17.102,83.639z
			 M37.518,95.322c-0.225-0.023-0.52-0.063-0.49-0.34c0.027-0.265,0.357-0.23,0.566-0.275c0.209-0.043,0.393,0.064,0.387,0.293
			C37.973,95.27,37.736,95.293,37.518,95.322z M45.162,98.643c-0.127-0.084-0.254-0.168-0.381-0.254
			c-0.114-0.162-0.286-0.238-0.457-0.32c-0.296-0.145-0.354-0.401-0.281-0.688c0.076-0.293,0.35-0.256,0.567-0.282
			c0.142-0.021,0.292,0.03,0.436,0.016c0.857-0.09,1.059,0.021,1.107,0.631C46.2,98.322,45.914,98.584,45.162,98.643z M47.29,91.678
			c-0.129,0.082-0.196,0.129-0.114,0.271c0,0,0.001,0.004,0,0.004c-0.783,0.479-1.594,0.807-2.52,0.416
			c-0.193-0.082-0.398-0.252-0.592-0.148c-0.593,0.312-0.811-0.066-0.967-0.508c-0.15-0.422-0.535-0.689-0.722-1.117
			c0.456-0.143,0.824,0.271,1.079,0.234c0.575-0.084,1.251,0.018,1.73-0.438c0.333-0.318,0.477-0.4,0.593,0.168
			c0.133,0.653,0.794,0.912,1.403,0.631c0.041,0.002,0.083,0.002,0.124,0.002C47.531,91.363,47.491,91.551,47.29,91.678z
			 M51.768,84.973c-0.262-0.006-0.449-0.119-0.445-0.408c0.004-0.213,0.131-0.371,0.348-0.362c0.289,0.008,0.398,0.252,0.512,0.461
			C52.137,84.914,51.969,84.977,51.768,84.973z M65.506,40.777c0-0.172-0.104-0.453-0.223-0.322
			c-0.422,0.463-0.594-0.023-0.855-0.154c-0.148-0.075-0.287-0.17-0.43-0.256c-0.316,0.021-0.666-0.074-0.896,0.252
			c-0.381,0.641-0.379,0.639-0.854,0.006c-0.072-0.096-0.166-0.199-0.273-0.242c-0.42-0.164-0.469-0.385-0.146-0.693
			c0.149-0.145,0.286-0.383,0.053-0.463c-0.769-0.26-0.778-1.299-1.647-1.486c-0.373-0.08-0.041-0.495,0.024-0.753
			c-0.717-0.015-1.364-0.301-2.057-0.198c-0.197,0.029-0.271-0.135-0.289-0.332c-0.045-0.505,0.389-0.715,0.644-1.022
			c0.092-0.113,0.317,0.038,0.356,0.23c0.043,0.21,0.151,0.235,0.313,0.15c0.092-0.047,0.221-0.099,0.244-0.175
			c0.059-0.192-0.139-0.217-0.252-0.302c-0.322-0.245-0.807-0.346-0.912-0.792c-0.02-0.008-0.039-0.016-0.057-0.023
			c-0.057-0.008-0.113-0.014-0.172-0.02c-0.098-0.077-0.17-0.157-0.227-0.24c-0.064-0.027-0.119-0.07-0.146-0.163
			c-0.063-0.225,0.086-0.388,0.246-0.525c0.043-0.037,0.088-0.073,0.131-0.11c0.028-0.096,0.053-0.193,0.076-0.291
			c-0.55,0.246-0.935,0.663-1.177,1.238c-0.053,0.126-0.188,0.195-0.328,0.125c0.193,0.156,0.384,0.342,0.586,0.51
			c0.097,0.08,0.195,0.17,0.248,0.283c0.08,0.168,0.306,0.445,0.119,0.514c-0.623,0.229-0.147,1.219-0.907,1.258
			c-0.431,0.022-0.541,0.173-0.384,0.541c0.117,0.272,0.054,0.553,0.064,0.828c0.062,0,0.127,0.013,0.186,0.049
			c0.349,0.216,0.709,0.459,0.734,0.934c0.023,0.429-0.146,0.705-0.578,0.884c-0.699,0.29-1.072,0.886-1.26,1.603
			c-0.014,0.005-0.025,0.002-0.039,0.003c0.34,0.806-0.504,1.961-1.375,1.758c-0.229-0.054-0.459-0.034-0.689-0.003
			c-0.811,0.11-1.098,0.799-0.605,1.461c0.221,0.297,0.527,0.462,0.869,0.596c0.646,0.256,0.701,0.467,0.324,1.048
			c-0.211,0.325-0.092,0.587,0.311,0.763c0.193,0.084,0.408,0.139,0.531,0.37c0.061,0.111,0.176,0.228,0.076,0.305
			c-0.277,0.215-0.551,0.42-0.799,0.678c-0.15,0.157-0.369,0.042-0.566-0.03c0,0.004,0,0.008,0,0.012
			c0.006,0.076-0.006,0.151-0.006,0.227c0.129,0.333,0.295,0.291,1.006,0.094c0.063,0.156,0.207,0.234,0.328,0.33
			c0.34,0.27,0.319,0.584-0.072,1.055c-0.197,0.108-0.453,0.131-0.584,0.34c-0.105,0.168-0.412,0.227-0.33,0.482
			c0.076,0.236,0.367-0.104,0.525,0.234c-0.467,0.082-0.887,0.291-1.355,0.324c-0.084,0.09-0.178,0.177-0.268,0.25
			c-0.396,0.033-0.813,0.35-1.191-0.059c-0.004-0.069,0.002-0.136,0.004-0.203c-0.396-0.072-0.795,0.014-1.193,0.023
			c-0.039,0.078-0.078,0.156-0.127,0.25c-0.346,0.096-0.68,0.21-0.883,0.539c-0.033,0.055-0.08,0.131-0.127,0.133
			c-0.779,0.049-1.512,0.615-2.324,0.275c-0.002,0.002-0.003,0.006-0.004,0.009c0.012,0.029,0.025,0.06,0.035,0.085
			c0.189,0.478,0.54,0.617,0.997,0.545c0.651-0.104,1.067,0.128,1.222,0.783c0.123,0.405,0.037,0.725-0.332,0.98
			c-0.443,0.31-0.776,0.81-1.424,0.707c-0.221-0.034-0.232,0.143-0.244,0.301c0,0.261-0.231,0.335-0.383,0.474
			c-0.27,0.103-0.383,0.349-0.512,0.572c-0.268,0.468-0.232,0.537,0.299,0.59c0.398,0.04,0.743,0.251,1.14,0.313
			c0.317,0.052,0.22,0.349,0.243,0.599c0.039-0.294,0.279-0.246,0.469-0.271c0.609-0.072,1.211,0.09,1.82,0.047
			c0.186-0.012,0.357,0.092,0.348,0.285c-0.043,0.854,0.633,1.14,1.193,1.453c1.047,0.59,1.064,0.56,1.287,1.672
			c0.283-0.343,0.291-0.804,0.646-1.08c0.453-0.354,0.605-0.35,0.801,0.179c0.068,0.188,0.285,0.327,0.201,0.569
			c-0.004,0.09-0.002,0.181-0.023,0.269c-0.01,0.006-0.016,0.017-0.025,0.021c0.518,0.217,0.834,0.58,1.078,1.164
			c0.396,0.943,0.354,1.795,0.006,2.689c-0.113,0.289-0.188,0.628-0.547,0.627c0,0.002,0.002,0.004,0.002,0.006
			c-0.01,0.096-0.006,0.188-0.01,0.279c0.143,0.371,0.129,0.822,0.532,1.061c0.197,0.116,0.369,0.271,0.554,0.409
			c0.692,0.022,1.27,0.233,1.59,0.916c0.145,0.304,0.408,0.438,0.752,0.488c0.41,0.061,0.834,0.116,1.191,0.366
			c-0.101,0.826-0.072,1.072,0.293,1.974c0.147,0.367,0.225,0.713-0.037,1.057c0,0.025-0.002,0.054-0.002,0.079
			c0.041-0.003,0.08-0.013,0.121,0.003c0.311,0.543,0.25,0.979-0.341,1.455c-0.405,0.328-0.731,0.752-1.209,0.998
			c-0.297,0.152-0.34,0.33-0.144,0.652c0.166,0.272,0.636,0.625,0.056,0.979c-0.123,0.111-0.269,0.209-0.367,0.339
			c-0.36,0.461-0.797,0.633-1.381,0.475c-0.551-0.146-1.073-0.074-1.524,0.326c-0.254,0.225-0.418,0.42,0.063,0.537
			c0.174,0.041,0.354,0.063,0.304,0.299c-0.046,0.19-0.218,0.264-0.392,0.248c-0.205-0.021-0.406-0.088-0.609-0.135
			c-0.313-0.072-0.621-0.052-0.76,0.268c-0.215,0.496-0.611,0.475-1.002,0.377c-0.51-0.129-1.016-0.264-1.545-0.184
			c-0.307,0.047-0.439-0.33-0.74-0.277c-0.24-0.025-0.465-0.135-0.695-0.213c0.025,0.011,0.053,0.019,0.076,0.031
			c0.199,0.102,0.42,0.176,0.604,0.312c0.145,0.232,0.234,0.492,0.314,0.754c0.01,0.176,0.078,0.303,0.27,0.342
			c0.17,0.033,0.229,0.148,0.213,0.316c-0.018,0.186-0.146,0.238-0.295,0.271c-0.203,0.047-0.398,0.123-0.6,0.172
			c-0.309,0.073-0.523,0.18-0.529,0.559c-0.004,0.23-0.195,0.402-0.363,0.564c-0.148,0.141-0.357,0.303-0.225,0.524
			c0.121,0.201,0.338,0.069,0.516,0.033c0.49-0.103,1.004-0.148,1.244-0.699c0.033-0.08,0.146-0.06,0.23-0.06
			c0.547-0.092,0.881,0.17,1.049,0.666c0.207,0.607-0.053,0.938-0.709,0.986c-0.613,0.045-1.156,0.346-1.721,0.559
			c-0.254,0.097-0.314,0.421-0.168,0.593c0.639,0.752,0.313,1.424-0.102,2.104c-0.084,0.082-0.168,0.166-0.25,0.248
			c-0.293-0.287-0.629-0.483-1.051-0.498c-0.742-0.022-0.963-0.713-1.396-1.121c-0.149-0.141,0.1-0.225,0.226-0.27
			c0.359-0.125,0.369-0.35,0.2-0.637c-0.247-0.422-0.41-0.869-0.382-1.369c-0.39-0.092-0.641-0.211-0.231-0.625
			c0.23-0.232,0.509-0.494,0.141-0.877c-0.176-0.184-0.12-0.455,0.106-0.592c0.15-0.092,0.285-0.209,0.43-0.309
			c-0.354,0-0.677-0.052-0.852-0.55c-0.107-0.308-0.541-0.276-0.85-0.162c-0.228,0.086-0.531,0.179-0.508,0.484
			c0.025,0.344,0.262,0.569,0.609,0.627c0.199,0.032,0.349,0.133,0.502,0.245c0.328,0.24,0.302,0.478-0.077,0.568
			c-0.362,0.088-0.619,0.219-0.687,0.607c0,0.002-0.039,0.002-0.055-0.006c-0.018-0.008-0.029-0.029-0.044-0.043
			c-0.821,0.037-0.854,0.074-0.877,1.004c0.001,0.041,0.003,0.082,0.005,0.123c0.266-0.055,0.504,0.064,0.75,0.129
			c0.393,0.896,0.334,0.975-0.754,1.012c0.002,0.123,0.004,0.248,0.006,0.371c0.476,0.084,0.854,0.125,0.707,0.857
			c-0.101,0.498,0.084,1.137,0.701,1.424c0.178,0.082,0.367,0.201,0.268,0.422c-0.101,0.223-0.25-0.055-0.374-0.018
			c-0.694,0.213-1.417-0.174-2.122,0.153c-0.462,0.216-1.24,0.041-1.637-0.25c-0.007-0.005-0.015-0.008-0.021-0.014
			c-0.073-0.056-0.137-0.113-0.177-0.177c-0.002-0.038-0.004-0.077-0.007-0.118c-0.042,0.094-0.117,0.184-0.122,0.278
			c-0.052,1.097-0.268,1.277-1.395,1.148c-0.082-0.01-0.163-0.027-0.244-0.043c-0.152-0.498-0.503-0.73-1.01-0.754
			c-0.406-0.029-0.786-0.117-1.018-0.502c-0.475-0.209-0.951-0.412-1.421-0.631c-0.088-0.041-0.215-0.148-0.21-0.215
			c0.046-0.607-0.382-0.635-0.809-0.732c-0.578-0.133-0.875-0.684-1.33-1.008c-0.172-0.121-0.061-0.367,0.039-0.52
			c0.22-0.339,0.105-0.562-0.161-0.812c-0.37-0.347-0.546-1.496-0.347-1.949c0.138-0.313,0.438-0.271,0.695-0.332
			c-0.422-0.211-0.668-0.53-0.748-1.014c-0.07-0.427-0.512-0.593-0.837-0.32c-0.169,0.142-0.31,0.229-0.493,0.121
			c-0.289-0.172-0.401,0.021-0.453,0.228c-0.052,0.213,0.045,0.371,0.311,0.342c0.333-0.037,0.328,0.125,0.25,0.385
			c-0.276,0.922-0.268,0.922-1.232,0.682c-0.436-0.106-0.665,0.059-0.586,0.521c0.08,0.465,0.24,0.928,0.078,1.397
			c-0.124,0.363-0.234,0.762-0.785,0.426c-0.39-0.239-0.549,0.002-0.5,0.379c0.039,0.302-0.02,0.449-0.352,0.406
			c-0.192-0.022-0.295,0.125-0.418,0.24c-0.518,0.471-0.584,0.445-0.734-0.256c-0.018-0.084-0.036-0.166-0.055-0.248
			c-0.182-0.559-0.621-0.963-0.888-1.479c-0.282-0.545-0.897-0.685-1.509-0.664c-0.107,0.229-0.238,0.438,0.022,0.678
			c0.171,0.156,0.224,0.396,0.175,0.746c-0.744-0.607-1.563-0.908-2.477-0.916c-0.477-0.146-0.938-0.402-1.465-0.207
			c-0.054,0.021-0.154,0.027-0.18-0.004c-0.484-0.588-1.257-0.641-1.879-0.951c-0.782-0.391-1.266-1.115-2.027-1.494
			c-0.213-0.105-0.353-0.188-0.619-0.109c-0.339,0.103-0.741-0.051-0.813-0.42c-0.187-0.957-1.05-1.043-1.695-1.338
			c-0.738-0.34-1.025-0.738-0.787-1.543c-0.291-0.553-0.527-1.129-0.734-1.721c-0.117-0.334-0.304-0.645-0.652-0.807
			c-0.562-0.131-0.914-0.502-1.11-1.021c-0.226-0.59-0.791-0.711-1.267-0.946c-0.184-0.093-0.336,0-0.293,0.243
			c0.022,0.125,0.07,0.244,0.088,0.367c0.025,0.188,0.053,0.418-0.189,0.467c-0.244,0.048-0.349-0.18-0.338-0.36
			c0.037-0.646-0.285-1.154-0.553-1.699c-0.162-0.33-0.34-0.443-0.684-0.35c-0.576,0.155-0.979-0.093-1.252-0.586
			c-0.234-0.427-0.484-0.832-0.937-1.072c-0.397-0.211-0.113-0.564-0.158-0.853c-0.003-0.082-0.005-0.163-0.008-0.245
			c-0.536-0.301-0.615-0.859-0.767-1.373c-0.087-0.3-0.156-0.604-0.234-0.906c-0.201-0.926-0.926-1.64-1.058-2.597
			c-0.015-0.108-0.104-0.206-0.222-0.169c-0.23,0.074-0.129,0.258-0.123,0.42c0.027,0.754,0.158,1.5,0.219,2.252
			c-0.129-0.199-0.26-0.396-0.393-0.592c-0.768-4.006-1.23-8.044-1.032-12.135c0.185-3.828,0.753-7.597,1.698-11.327
			c0.592-2.336,1.332-4.596,2.283-6.798c0.001,0,0.001,0.001,0.001,0.001c0.11-0.453,0.28-0.885,0.503-1.295
			c0.369-0.43,0.479-0.985,0.713-1.48c0.783-1.65,1.672-3.237,2.637-4.775c0.35-0.105,0.689-0.257,1.004-0.488
			c-0.537,0.828-1.078,1.654-1.594,2.496c-0.352,0.574-0.543,1.209-0.828,1.807c-0.293,0.064-0.366,0.257-0.374,0.539
			c-0.007,0.266-0.124,0.395-0.321,0.373c0.222,0.248,0.275,0.618,0.494,0.916c0.297-0.351,0.658-0.604,0.855-1.002
			c0.431-0.864,1.084-1.566,1.699-2.289c0.594-0.701,1.134-1.443,1.707-2.15c0.656-0.811,1.368-1.627,2.234-2.262
			c0.302,0.084,0.563-0.004,0.791-0.197c0.16-0.133,0.334-0.239,0.519-0.333c0.871-0.444,1.104-0.366,1.448,0.483
			c-0.15,0.637-0.533,1.15-0.946,1.634c-0.673,0.788-1.495,1.451-1.724,2.561c-0.114,0.552-0.627,0.661-1.51,0.444
			c0.481,0.994,0.389,1.918-0.27,2.793c-0.137,0.184-0.233,0.352-0.492,0.238c-0.004-0.003-0.006-0.007-0.01-0.01
			c-0.135,0.463-0.253,0.92-0.741,1.217c-0.321,0.195-0.33,0.859-0.95,0.643c-0.016,0.08-0.052,0.161-0.045,0.239
			c0.016,0.181,0.104,0.532,0.184,0.462c0.408-0.354,0.689,0.621,1.053,0.068c0.171-0.258,0.443-0.29,0.708-0.355
			c0.704-0.173,0.772-0.341,0.39-0.97c-0.092-0.152-0.182-0.413,0.025-0.4c0.6,0.038,0.756-0.399,1.012-0.964
			c0.152,0.719,0.672,1.079,0.686,1.684c0.007,0.277,0.16,0.375,0.422,0.267c0.194-0.079,0.384-0.169,0.574-0.255
			c-0.036-0.002-0.073-0.005-0.109-0.008c-0.346-0.303-0.715-0.583-0.385-1.135c0.063-0.104-0.066-0.314-0.085-0.479
			c-0.083-0.694-0.115-1.38,0.458-1.918c0.088-0.041,0.175-0.082,0.262-0.123c0.639-0.479,1.104-1.127,1.648-1.695
			c0.295-0.309,0.546-0.549,1.058-0.445c0.456,0.092,0.947-0.04,1.325-0.388c-0.141-1.186,0.562-2.052,1.15-2.946
			c0.412-0.627,0.895-1.207,1.348-1.807c0.074-0.1,0.172-0.104,0.277-0.055c0.023-0.643,0.441-0.736,0.979-0.784
			c1.004-0.09,1.973-0.323,2.869-0.957c-0.285-0.218-0.648-0.116-0.818-0.393c-0.012-0.019-0.026-0.034-0.033-0.054
			c-0.258-0.694,0.42-0.868,0.715-1.246c0.199-0.256,0.496-0.41,0.833-0.186c0.321,0.217,0.312,0.771-0.044,1.111
			c-0.162,0.156-0.385,0.25-0.58,0.373c0.643,0.308,1.182-0.104,1.74-0.281c0.758-0.24,1.484-0.578,2.298-0.602
			c0.321,0.006,0.597-0.148,0.884-0.255c0.508-0.227,0.89,0.138,0.998,0.46c0.138,0.414,0.352,0.375,0.629,0.357
			c0.243-0.015,0.459,0.033,0.646,0.19c0.139,0.027,0.245,0.089,0.258,0.249c0.293,0.002,0.586,0.005,0.881,0.008
			c0.033-0.023,0.064-0.054,0.103-0.066c0.327-0.116,0.319-0.693,0.71-0.621c0.324,0.059,0.584,0.357,0.869,0.557
			c0.068,0.046,0.143,0.082,0.211,0.127c0.125,0.002,0.25,0.002,0.375,0.003c0.296,0.216,0.59,0.208,0.884-0.003l0.001-0.002
			c0.271-0.162,0.48-0.45,0.875-0.338c0.342,0.098,0.593,0.234,0.669,0.619c0.08,0.406-0.306,0.361-0.536,0.549
			c0.548,0.281,1.22-0.066,1.637,0.446c0.012,0.196,0.095,0.316,0.313,0.284c0.309-0.045,0.559,0.127,0.832,0.215
			c0.252,0.038,0.458,0.36,0.754,0.12c0.004-0.249,0.008-0.499,0.012-0.748c0.054-0.041,0.088-0.042,0.115-0.032
			c-0.006-0.136-0.102-0.262-0.061-0.404c0,0,0,0,0-0.001c-0.086-0.087-0.092-0.252-0.19-0.325
			c-0.409-0.207-0.509-0.469-0.163-0.831c0.084-0.089,0.172-0.21,0.182-0.323c0.113-1.474,1.143-1.979,2.381-2.177
			c0.653-0.104,1.211-0.552,1.871-0.603c-0.082-0.193-0.037-0.431-0.016-0.648c0.037-0.41-0.038-0.586-0.512-0.496
			c-0.529,0.1-0.835-0.265-0.758-0.811c-0.023,0.027-0.047,0.045-0.079,0.066c-0.526,0.037-0.56-0.363-0.646-0.724
			c0.197-0.339,0.426-0.624,0.881-0.614c0.231,0.006,0.366-0.146,0.371-0.39c0.046-0.106,0.121-0.19,0.186-0.272
			c-0.584-0.099-1.21,0.027-1.706-0.397c-0.071-0.053-0.122-0.128-0.191-0.183c-0.46-0.359-0.38-0.802-0.195-1.264
			c0.077-0.193,0.19-0.313,0.415-0.314c0.54-0.004,0.563-0.324,0.428-0.727c-0.099-0.293-0.16-0.572-0.033-0.793
			c-0.217,0.223-0.328,0.496-0.182,0.884c0.129,0.343-0.039,0.492-0.347,0.552c-0.271,0.053-0.544-0.012-0.817,0.006
			c-0.688,0.043-0.749,0.101-0.843,0.816c-0.055,0.217-0.149,0.407-0.329,0.546c-0.669,0.116-1.096-0.367-1.43-0.761
			c-0.368-0.436-0.521-0.457-0.768,0.02c-0.139,0.269-0.356,0.391-0.654,0.415c-1.164,0.1-1.605,0.993-2.038,1.886
			c-0.087,0.179-0.005,0.368,0.038,0.553c0.204,0.859,0,1.178-0.852,1.448c-0.51,0.161-1.09,0.304-1.539,0.165
			c-0.604-0.189-1.281-0.289-1.797-0.729c-0.156-0.134-0.309-0.367-0.442,0.016c-0.158,0.287,0.181,0.742-0.309,0.918
			c-0.56,0.201-1.095,0.553-1.724,0.189c-0.422-0.242-0.875-0.264-1.328-0.081c-0.227,0.091-0.441,0.169-0.563-0.142
			c-0.914,0.18-1.742,0.604-2.583,0.969c-1.026,0.445-1.741,1.259-2.306,2.215c-0.403,0.686-0.999,1.174-1.707,1.522
			c-0.266,0.131-0.53,0.021-0.797-0.038c-0.207-0.045-0.389-0.028-0.285,0.291c0.335,1.029,0.133,1.52-0.867,2.156
			c-0.127-0.294,0.068-0.521,0.15-0.771c0.049-0.148,0.043-0.299-0.11-0.387c-0.128-0.074-0.244-0.002-0.349,0.07
			c-0.291,0.197-0.434,0.505-0.596,0.799c-0.123,0.227-0.264,0.461-0.569,0.406c-0.286-0.053-0.304-0.311-0.337-0.541
			c-0.302-0.06-0.605-0.119-0.873-0.171c-0.168-0.713,0.13-1.394,0.119-2.099c0.018-0.026,0.035-0.053,0.053-0.078
			c0.5,0.045,1.064-0.313,1.102-0.794c0.027-0.358,0.183-0.53,0.467-0.654c0.477-0.03,0.918-0.109,0.945-0.729
			c0.008-0.169,0.127-0.26,0.261-0.336c0.29-0.045,0.635,0.172,0.866-0.18c0.031-0.003,0.063-0.006,0.093-0.009
			c0.349-0.122,0.583-0.337,0.795-0.663c0.302-0.465,0.833-0.69,1.367-0.786c0.962-0.173,1.933-0.302,2.603-1.123
			c0.475-0.584,1.174-0.872,1.728-1.353c0.06-0.052,0.167-0.113,0.225-0.092c0.743,0.26,1.395-0.142,2.086-0.262
			c0.368-0.063,0.694-0.152,0.918-0.475c0.035-0.051,0.12-0.131,0.134-0.123c0.623,0.402,1.084-0.205,1.631-0.26
			c0.154-0.015,0.257,0.066,0.26,0.208c0.011,0.708,0.352,0.309,0.581,0.165c0.173-0.107,0.31-0.272,0.511-0.455
			c-0.319-0.182-0.604-0.347-0.891-0.508c-0.112-0.064-0.223-0.135-0.223-0.279c0-0.181,0.133-0.266,0.282-0.289
			c0.563-0.086,1.014-0.564,1.706-0.292c0.449,0.177,1.008-0.048,1.197-0.652c0.164-0.523,0.664-0.603,1.067-0.804
			c0.44-0.221,0.951-0.313,1.166-0.865c0.118-0.303,0.484-0.303,0.755-0.402c1.118-0.41,2.238-0.816,3.363-1.209
			c0.383-0.135,0.791-0.078,1.189-0.094c0.249-0.01,0.52,0.025,0.697-0.207c0.139-0.18,0.317-0.365,0.516-0.191
			c0.252,0.219,0.697,0.269,0.715,0.718c0.008,0.188-0.005,0.378-0.008,0.567c0.93,0.733,1.135,1.996,2.021,2.764
			c0.229,0.199,0.193,0.453,0.042,0.682c-0.103,0.154-0.241,0.285-0.368,0.422c-0.178,0.188-0.493,0.313-0.388,0.647
			c0.042,0.133,0.12,0.211,0.212,0.271c0.082-0.056,0.167-0.108,0.247-0.167c0.308-0.154,0.612-0.029,0.917,0.01
			c0.166,0.021,0.395,0.145,0.484,0.027c0.295-0.392,0.793-0.469,1.117-0.758c0.326-0.291,0.525-0.299,0.803-0.035
			c0.211,0.201,0.418,0.395,0.525,0.691c0.117,0.324,0.535,0.35,0.705,0.061c0.119-0.205,0.365-0.197,0.531-0.381
			c-0.074-0.279-0.502-0.393-0.422-0.768c0.049-0.244,0.24-0.388,0.359-0.582c0.166-0.277,0.441-0.291,0.719-0.294
			c0.455-0.003,0.875-0.099,1.211-0.434c0.656-0.144,1.018,0.356,1.391,0.714c0.718,0.684,1.438,1.059,2.439,0.604
			c0.373-0.169,0.732,0.125,1.008,0.381c0.193,0.178,0.148,0.371-0.129,0.479c-0.359,0.14-0.709,0.261-1.098,0.097
			c-0.145-0.062-0.305-0.168-0.48-0.021c0.074,0.271,0.344,0.35,0.515,0.521c-0.082,0.125-0.162,0.25-0.244,0.374
			c-0.315,0.082-0.664,0.215-0.55,0.599c0.099,0.326,0.479,0.249,0.763,0.246c0.185-0.002,0.383-0.241,0.545,0.041
			c-0.594,0.09-1.149,0.354-1.774,0.319c-0.283-0.015-0.539-0.046-0.771-0.207c-0.231-0.161-0.438-0.181-0.692-0.017
			c-0.404,0.258-0.918,0.102-1.148-0.313c-0.063-0.109-0.092-0.239-0.166-0.336c-0.131-0.171-0.32-0.186-0.516-0.119
			c-0.105,0.036-0.197,0.111-0.178,0.229c0.057,0.316,0.342,0.002,0.49,0.199c-0.393,0.437-0.297,0.79,0.254,1.038
			c0.224,0.101,0.328,0.259,0.328,0.544c0,0.685,0.258,0.918,0.957,0.93c0.692,0.011,1.389-0.025,2.08,0.005
			c0.354,0.017,0.778,0.001,0.717,0.616c-0.013,0.106,0.465,0.303,0.735,0.389c0.324,0.103,0.656,0.183,0.978,0.303
			c0.06-0.052,0.129-0.094,0.228-0.104c0.18-0.002,0.358-0.022,0.529,0.054c0.368,0.091,0.606,0.432,0.977,0.521
			c0.137,0.122,0.344,0.222,0.436,0.048c0.217-0.411,0.5-0.401,0.791-0.333c1.221,6.521,2.028,13.817,2.434,21.877
			C65.511,41.582,65.503,41.46,65.506,40.777z"/>
	</g>
</g>
</svg>